{"title":"Antiviral 2012 DVDrip Xvid Ac3-MiLENiUM","uid":8805589,"size":1647051783,"categoryP":"video","categoryS":"movies","magnet":"?xt=urn:btih:20f20be412e991148349b71a624a5b53c0890182&amp;dn=Antiviral+2012+DVDrip+Xvid+Ac3-MiLENiUM+&amp;tr=udp%3A%2F%2Ftracker.openbittorrent.com%3A80&amp;tr=udp%3A%2F%2Fopen.demonii.com%3A1337&amp;tr=udp%3A%2F%2Ftracker.coppersurfer.tk%3A6969&amp;tr=udp%3A%2F%2Fexodus.desync.com%3A6969","seeders":1,"leechers":0,"uploader":"R0thschild","files":9,"time":1376322266,"description":"Public Hash - Largest Bittorrent Community \nCrystal Clean files - Fast Speed! No Virus! No Fake! Enjoy!\n &lt;a href=&quot;\nhttp://www.imdb.com/title/tt2099556/&quot; rel=&quot;nofollow&quot; target=&quot;_NEW&quot;&gt;\nhttp://www.imdb.com/title/tt2099556/&lt;/a&gt;\n\nAntiviral 2012\n108 min  -  Horror | Sci-Fi | Thriller  -  30 November 2012 (Iceland)\nIMDB rating: 5.6\n\nAfter becoming infected with the virus that killed superstar Hannah Geist, Syd March must unravel the mystery surrounding her death to save his own life.\n\nDirector: Brandon Cronenberg\nWriter: Brandon Cronenberg (screenplay)\n\n\n\nCaleb Landry Jones ... Syd March\nSarah Gadon ... Hannah Geist\nDouglas Smith ... Edward Porris\nJoe Pingue ... Arvid\nNicholas Campbell ... Dorian\nSheila McCarthy ... Dev Harvey\nWendy Crewson ... Mira Tesser\nNenna Abuwa ... Aria Noble\nLisa Berry ... Lucas Clinic Receptionist\nMalcolm McDowell ..Dr. Abendroth\nDonna Goodhand ... Woman in Waiting Room\nAdam Bogen ... Lucas Clinic Security Guard\nSalvatore Antonio ... Topp\nMatt Watts ... Mercer\nDawn Greenhalgh ... Jane \n\n\nGeneral\nComplete name                            : Antiviral.2012 DVDrip Xvid Ac3-MiLLENiUM.avi\nsource                                   : DVDR [thanks]\nFormat                                   : AVI\nFormat/Info                              : Audio Video Interleave\nFile size                                : 1.51 GiB\nDuration                                 : 1h 43mn\nOverall bit rate                         : 2 090 Kbps\nWriting application                      : VirtualDubMod 1.5.10.2 (build 2540/release)\nWriting library                          : VirtualDubMod build 2540/release\n\nVideo\nID                                       : 0\nFormat                                   : MPEG-4 Visual\nFormat profile                           : Advanced Simple@L5\nFormat settings, BVOP                    : 2\nFormat settings, QPel                    : No\nFormat settings, GMC                     : No warppoints\nFormat settings, Matrix                  : Default (H.263)\nMuxing mode                              : Packed bitstream\nCodec ID                                 : XVID\nCodec ID/Hint                            : XviD\nDuration                                 : 1h 43mn\nBit rate                                 : 1 632 Kbps\nWidth                                    : 720 pixels\nHeight                                   : 384 pixels\nDisplay aspect ratio                     : 1.875\nFrame rate                               : 25.000 fps\nColor space                              : YUV\nChroma subsampling                       : 4:2:0\nBit depth                                : 8 bits\nScan type                                : Progressive\nCompression mode                         : Lossy\nBits/(Pixel*Frame)                       : 0.236\nStream size                              : 1.18 GiB (78%)\nWriting library                          : XviD 64\n\nAudio\nID                                       : 1\nFormat                                   : AC-3\nFormat/Info                              : Audio Coding 3\nMode extension                           : CM (complete main)\nCodec ID                                 : 2000\nDuration                                 : 1h 43mn\nBit rate mode                            : Constant\nBit rate                                 : 448 Kbps\nChannel(s)                               : 6 channels\nChannel positions                        : Front: L C R, Side: L R, LFE\nSampling rate                            : 48.0 KHz\nBit depth                                : 16 bits\nCompression mode                         : Lossy\nStream size                              : 331 MiB (21%)\nAlignment                                : Split accross interleaves\nInterleave, duration                     : 40 ms (1.00 video frame)\nInterleave, preload duration             : 500 ms","torrent":{"xt":"urn:btih:20f20be412e991148349b71a624a5b53c0890182","amp;dn":"Antiviral+2012+DVDrip+Xvid+Ac3-MiLENiUM+","amp;tr":["udp%3A%2F%2Ftracker.openbittorrent.com%3A80","udp%3A%2F%2Fopen.demonii.com%3A1337","udp%3A%2F%2Ftracker.coppersurfer.tk%3A6969","udp%3A%2F%2Fexodus.desync.com%3A6969"],"infoHash":"20f20be412e991148349b71a624a5b53c0890182","infoHashBuffer":{"type":"Buffer","data":[32,242,11,228,18,233,145,20,131,73,183,26,98,74,91,83,192,137,1,130]},"announce":[],"urlList":[]}}